<?xml version="1.0" encoding="UTF-8"?><svg id="Layer_2" data-name="Layer 2" xmlns="http://www.w3.org/2000/svg" viewBox="0 0 32.22 34.8"><defs><style>.cls-1 {
        fill: #f5edd8;
      }</style></defs><g id="Layer_1-2" data-name="Layer 1"><path class="cls-1" d="M15.83,22.05c1.66,0,3.11-.53,4.33-1.59,1.23-1.06,1.84-2.37,1.84-3.94,0-1.32-.41-2.43-1.21-3.35-.81-.92-1.83-1.38-3.06-1.38-1,0-1.86.33-2.59.98-.73.66-1.09,1.46-1.09,2.4,0,.4.1.79.29,1.19.19.4.42.75.69,1.07l.98-.73c-.25-.16-.45-.38-.61-.67-.16-.29-.24-.57-.24-.84,0-.53.21-1.03.64-1.53.43-.49,1.07-.74,1.93-.74s1.57.33,2.21,1c.64.67.96,1.54.96,2.63,0,1.17-.46,2.19-1.39,3.06-.92.87-2.14,1.31-3.66,1.31-1.63,0-3.04-.65-4.23-1.94-1.19-1.29-1.78-2.91-1.78-4.86,0-.98.2-1.94.6-2.88.4-.94.96-1.78,1.68-2.49l-.83-.8c-.82.85-1.45,1.79-1.91,2.8-.46,1.02-.69,2.1-.69,3.25,0,2.21.68,4.1,2.05,5.66,1.37,1.57,3.06,2.35,5.08,2.35ZM6,34.8v-7.16c-1.93-1.73-3.42-3.66-4.45-5.77-1.03-2.11-1.55-4.28-1.55-6.48,0-4.27,1.5-7.9,4.49-10.89C7.49,1.5,11.12,0,15.38,0c3.45,0,6.58,1.07,9.39,3.2,2.81,2.13,4.64,4.85,5.48,8.15l1.95,7.8c.07.46-.01.85-.24,1.17-.23.32-.59.48-1.08.48h-4.08v7.3c0,.76-.27,1.4-.81,1.92-.54.52-1.17.78-1.89.78h-5.3v4h-1.1v-5.1h6.4c.45,0,.83-.15,1.14-.45s.46-.68.46-1.15v-8.4h5.48l-1.98-8.15c-.8-3.13-2.49-5.66-5.08-7.58s-5.5-2.88-8.74-2.88c-3.98,0-7.36,1.38-10.13,4.15C2.49,8.02,1.1,11.39,1.1,15.35c0,2.11.42,4.07,1.25,5.87.84,1.8,2.02,3.4,3.55,4.8l1.2,1.15v7.63s-1.1,0-1.1,0Z"/></g></svg>